<?xml version="1.0" encoding="utf-8"?>
<!-- Generator: Adobe Illustrator 16.0.0, SVG Export Plug-In . SVG Version: 6.00 Build 0)  -->
<!DOCTYPE svg PUBLIC "-//W3C//DTD SVG 1.1//EN" "http://www.w3.org/Graphics/SVG/1.1/DTD/svg11.dtd">
<svg version="1.1" id="Layer_1" xmlns="http://www.w3.org/2000/svg" xmlns:xlink="http://www.w3.org/1999/xlink" x="0px" y="0px"
	 width="250px" height="250px" viewBox="0 0 250 250" enable-background="new 0 0 250 250" xml:space="preserve">
<g>
	<g>
		<g>
			<path fill-rule="evenodd" clip-rule="evenodd" d="M110.894,121.883c4.333,0,6.118-3.068,3.988-6.828L93.878,78.045
				c-2.128-3.764-7.412-6.725-11.73-6.591L43.27,72.692c-4.314,0.141-6.197,3.375-4.183,7.197l18.52,35.039
				c2.023,3.828,7.211,6.955,11.523,6.955H110.894z"/>
		</g>
		<g>
			<path fill-rule="evenodd" clip-rule="evenodd" d="M121.378,110.598c2.143,3.745,5.706,3.787,7.935,0.096l21.226-35.367
				c2.23-3.711,2.179-9.742-0.096-13.417l-20.999-33.84c-2.28-3.672-6.029-3.697-8.328-0.022L100.82,60.334
				c-2.294,3.659-2.434,9.724-0.298,13.482L121.378,110.598z"/>
		</g>
		<g>
			<path fill-rule="evenodd" clip-rule="evenodd" d="M135.797,115.14c-2.221,3.713-0.505,6.743,3.822,6.743h41.451
				c4.329,0,9.534-3.127,11.579-6.924l18.518-34.576c2.044-3.818,0.183-7.065-4.14-7.227l-37.146-1.396
				c-4.32-0.164-9.678,2.744-11.898,6.447L135.797,115.14z"/>
		</g>
		<g>
			<path fill-rule="evenodd" clip-rule="evenodd" d="M140.109,129.744c-4.333,0-6.113,3.076-3.974,6.836l20.073,35.376
				c2.136,3.762,7.406,6.73,11.735,6.597l38.788-1.239c4.324-0.134,6.212-3.371,4.187-7.199l-17.665-33.43
				c-2.021-3.818-7.199-6.941-11.532-6.941H140.109z"/>
		</g>
		<g>
			<path fill-rule="evenodd" clip-rule="evenodd" d="M128.951,139.849c-2.134-3.762-5.695-3.796-7.927-0.099L99.76,175.168
				c-2.221,3.703-2.171,9.737,0.107,13.406l20.698,33.373c2.282,3.666,6.03,3.666,8.319,0.011l20.339-32.36
				c2.302-3.654,2.437-9.724,0.309-13.48L128.951,139.849z"/>
		</g>
		<g>
			<path fill-rule="evenodd" clip-rule="evenodd" d="M113.825,136.48c2.221-3.708,0.514-6.737-3.818-6.737H68.055
				c-4.319,0-9.52,3.109-11.562,6.923l-17.665,32.962c-2.036,3.811-0.172,7.06,4.146,7.215l37.732,1.418
				c4.318,0.162,9.682-2.747,11.903-6.449L113.825,136.48z"/>
		</g>
	</g>
</g>
</svg>
